<svg width="15" height="15" viewBox="0 0 15 15" fill="none" xmlns="http://www.w3.org/2000/svg">
<path fill-rule="evenodd" clip-rule="evenodd" d="M7.33333 14.8334C3.28324 14.8334 0 11.5501 0 7.50002C0 3.44993 3.28324 0.166687 7.33333 0.166687C11.3834 0.166687 14.6667 3.44993 14.6667 7.50002C14.6667 11.5501 11.3834 14.8334 7.33333 14.8334ZM7.33334 13.5C10.647 13.5 13.3333 10.8137 13.3333 7.50002C13.3333 4.18631 10.647 1.50002 7.33334 1.50002C4.01963 1.50002 1.33334 4.18631 1.33334 7.50002C1.33334 10.8137 4.01963 13.5 7.33334 13.5ZM6.47137 4.36194L5.52856 5.30475L7.72382 7.50001L5.52856 9.69527L6.47137 10.6381L9.60944 7.50001L6.47137 4.36194Z" fill="white"/>
</svg>
