<svg width="31" height="27" viewBox="0 0 31 27" fill="none" xmlns="http://www.w3.org/2000/svg">
<path d="M20.2693 12.3078H24.4424C24.9393 12.3078 25.3616 12.134 25.7094 11.7862C26.057 11.4384 26.2311 11.0162 26.2311 10.5192V9.92332C26.2311 8.60673 25.7652 7.48283 24.8336 6.55122C23.9021 5.61994 22.778 5.15411 21.4615 5.15411H20.2693C19.9465 5.15411 19.6671 5.03607 19.431 4.80018C19.1951 4.56417 19.0771 4.28482 19.0771 3.96189V1.57706C19.0771 1.25419 19.1952 0.974587 19.431 0.738571C19.6671 0.50288 19.9464 0.384644 20.2693 0.384644H21.4615C22.7533 0.384644 23.9857 0.636386 25.1596 1.13915C26.3333 1.64225 27.3484 2.3223 28.2055 3.17939C29.0625 4.03608 29.7424 5.05134 30.2454 6.22516C30.7485 7.39885 31 8.63159 31 9.92325V23.0383C31 24.0324 30.6524 24.8765 29.9569 25.5723C29.2613 26.2677 28.4165 26.6154 27.423 26.6154H20.2689C19.2754 26.6154 18.4309 26.2677 17.7353 25.5723C17.0399 24.8765 16.6921 24.0324 16.6921 23.0383V15.8848C16.6921 14.8909 17.0399 14.0468 17.7357 13.3509C18.4311 12.6556 19.2759 12.3078 20.2693 12.3078Z" fill="#4E81B6"/>
<path d="M20.2693 12.3078H24.4424C24.9393 12.3078 25.3616 12.134 25.7094 11.7862C26.057 11.4384 26.2311 11.0162 26.2311 10.5192V9.92332C26.2311 8.60673 25.7652 7.48283 24.8336 6.55122C23.9021 5.61994 22.778 5.15411 21.4615 5.15411H20.2693C19.9465 5.15411 19.6671 5.03607 19.431 4.80018C19.1951 4.56417 19.0771 4.28482 19.0771 3.96189V1.57706C19.0771 1.25419 19.1952 0.974587 19.431 0.738571C19.6671 0.50288 19.9464 0.384644 20.2693 0.384644H21.4615C22.7533 0.384644 23.9857 0.636386 25.1596 1.13915C26.3333 1.64225 27.3484 2.3223 28.2055 3.17939C29.0625 4.03608 29.7424 5.05134 30.2454 6.22516C30.7485 7.39885 31 8.63159 31 9.92325V23.0383C31 24.0324 30.6524 24.8765 29.9569 25.5723C29.2613 26.2677 28.4165 26.6154 27.423 26.6154H20.2689C19.2754 26.6154 18.4309 26.2677 17.7353 25.5723C17.0399 24.8765 16.6921 24.0324 16.6921 23.0383V15.8848C16.6921 14.8909 17.0399 14.0468 17.7357 13.3509C18.4311 12.6556 19.2759 12.3078 20.2693 12.3078Z" fill="url(#paint0_radial)" fill-opacity="0.4"/>
<path d="M1.04205 13.3509C1.73737 12.6556 2.58193 12.3078 3.57565 12.3078H7.7487C8.24527 12.3078 8.66803 12.134 9.01524 11.7862C9.36316 11.4384 9.53686 11.0162 9.53686 10.5192V9.92332C9.53686 8.60673 9.07103 7.48283 8.13988 6.55122C7.20867 5.61994 6.08465 5.15411 4.76754 5.15411H3.57558C3.25265 5.15411 2.97311 5.03607 2.73722 4.80018C2.50147 4.56417 2.38304 4.28482 2.38304 3.96189V1.57706C2.38304 1.25419 2.5014 0.974587 2.73722 0.738571C2.97305 0.50288 3.25258 0.384644 3.57558 0.384644H4.76754C6.06005 0.384644 7.2922 0.636386 8.46634 1.13915C9.63983 1.64225 10.6547 2.3223 11.5118 3.17939C12.3689 4.03608 13.049 5.05134 13.5519 6.22516C14.0548 7.39885 14.3066 8.63159 14.3066 9.92325V23.0383C14.3066 24.0324 13.9587 24.8765 13.2634 25.5723C12.568 26.2677 11.7235 26.6154 10.7298 26.6154H3.57604C2.58232 26.6154 1.73783 26.2677 1.0425 25.5723C0.346657 24.8765 -0.000547409 24.0324 -0.000547409 23.0383V15.8848C-0.000613213 14.8908 0.346658 14.0468 1.04205 13.3509Z" fill="#4E81B6"/>
<path d="M1.04205 13.3509C1.73737 12.6556 2.58193 12.3078 3.57565 12.3078H7.7487C8.24527 12.3078 8.66803 12.134 9.01524 11.7862C9.36316 11.4384 9.53686 11.0162 9.53686 10.5192V9.92332C9.53686 8.60673 9.07103 7.48283 8.13988 6.55122C7.20867 5.61994 6.08465 5.15411 4.76754 5.15411H3.57558C3.25265 5.15411 2.97311 5.03607 2.73722 4.80018C2.50147 4.56417 2.38304 4.28482 2.38304 3.96189V1.57706C2.38304 1.25419 2.5014 0.974587 2.73722 0.738571C2.97305 0.50288 3.25258 0.384644 3.57558 0.384644H4.76754C6.06005 0.384644 7.2922 0.636386 8.46634 1.13915C9.63983 1.64225 10.6547 2.3223 11.5118 3.17939C12.3689 4.03608 13.049 5.05134 13.5519 6.22516C14.0548 7.39885 14.3066 8.63159 14.3066 9.92325V23.0383C14.3066 24.0324 13.9587 24.8765 13.2634 25.5723C12.568 26.2677 11.7235 26.6154 10.7298 26.6154H3.57604C2.58232 26.6154 1.73783 26.2677 1.0425 25.5723C0.346657 24.8765 -0.000547409 24.0324 -0.000547409 23.0383V15.8848C-0.000613213 14.8908 0.346658 14.0468 1.04205 13.3509Z" fill="url(#paint1_radial)" fill-opacity="0.4"/>
<defs>
<radialGradient id="paint0_radial" cx="0" cy="0" r="1" gradientUnits="userSpaceOnUse" gradientTransform="translate(16.6921 0.384644) rotate(68.5922) scale(28.1746 20.2023)">
<stop stop-color="#00FF75"/>
<stop offset="1" stop-color="#00FF75" stop-opacity="0"/>
</radialGradient>
<radialGradient id="paint1_radial" cx="0" cy="0" r="1" gradientUnits="userSpaceOnUse" gradientTransform="translate(-0.000547409 0.384644) rotate(68.5932) scale(28.1744 20.2014)">
<stop stop-color="#00FF75"/>
<stop offset="1" stop-color="#00FF75" stop-opacity="0"/>
</radialGradient>
</defs>
</svg>
