<svg width="15" height="16" viewBox="0 0 15 16" fill="none" xmlns="http://www.w3.org/2000/svg">
<path fill-rule="evenodd" clip-rule="evenodd" d="M7.66634 15.3333C3.61625 15.3333 0.333008 12.0501 0.333008 8C0.333008 3.94992 3.61625 0.666672 7.66634 0.666672C11.7164 0.666672 14.9997 3.94992 14.9997 8C14.9997 12.0501 11.7164 15.3333 7.66634 15.3333ZM7.66635 14C10.9801 14 13.6663 11.3137 13.6663 8C13.6663 4.6863 10.9801 2 7.66635 2C4.35264 2 1.66635 4.6863 1.66635 8C1.66635 11.3137 4.35264 14 7.66635 14ZM6.80438 4.86193L5.86157 5.80473L8.05683 8L5.86157 10.1953L6.80438 11.1381L9.94244 8L6.80438 4.86193Z" fill="white"/>
</svg>
